<svg width="26" height="25" viewBox="0 0 26 25" fill="none" xmlns="http://www.w3.org/2000/svg">
<rect x="0.967213" y="0.512806" width="23.8428" height="23.8428" rx="4.44131" stroke="black" stroke-width="0.467506"/>
<g clip-path="url(#clip0_1649_59)">
<path d="M22.2387 12.4342C22.2387 7.2703 18.0525 3.08411 12.8886 3.08411C7.72468 3.08411 3.53848 7.2703 3.53848 12.4342C3.53848 17.1011 6.95769 20.9693 11.4277 21.6707V15.137H9.0536V12.4342H11.4277V10.3743C11.4277 8.0309 12.8236 6.7365 14.9593 6.7365C15.9823 6.7365 17.0523 6.91912 17.0523 6.91912V9.22013H15.8733C14.7118 9.22013 14.3496 9.94086 14.3496 10.6803V12.4342H16.9428L16.5282 15.137H14.3496V21.6707C18.8195 20.9693 22.2387 17.1011 22.2387 12.4342Z" fill="black"/>
<path d="M16.5282 15.137L16.9428 12.4342H14.3496V10.6803C14.3496 9.94082 14.7118 9.22008 15.8733 9.22008H17.0523V6.91907C17.0523 6.91907 15.9823 6.73645 14.9593 6.73645C12.8236 6.73645 11.4277 8.03086 11.4277 10.3742V12.4342H9.0536V15.137H11.4277V21.6707C12.3957 21.8222 13.3815 21.8222 14.3496 21.6707V15.137H16.5282Z" fill="white"/>
</g>
<defs>
<clipPath id="clip0_1649_59">
<rect width="18.7002" height="18.7002" fill="white" transform="translate(3.53848 3.08411)"/>
</clipPath>
</defs>
</svg>
