<svg width="25" height="25" viewBox="0 0 25 25" fill="none" xmlns="http://www.w3.org/2000/svg">
<rect x="0.294147" y="0.512806" width="23.8428" height="23.8428" rx="4.44131" stroke="black" stroke-width="0.467506"/>
<g clip-path="url(#clip0_1649_55)">
<path d="M16.9564 6.62756C15.5352 6.67114 15.5356 8.71582 16.9564 8.75902C18.3777 8.71545 18.3773 6.67076 16.9564 6.62756ZM12.2156 7.86141C9.69663 7.86141 7.65475 9.90871 7.65475 12.4342C7.89505 18.5 16.5368 18.4983 16.7762 12.4342C16.7764 9.90871 14.7343 7.86141 12.2156 7.86141ZM12.2156 15.4025C10.5806 15.4025 9.25512 14.0734 9.25512 12.4342C9.41108 8.49684 15.0208 8.49778 15.1762 12.4342C15.176 14.0736 13.8505 15.4025 12.2156 15.4025Z" fill="black"/>
<path d="M21.0436 8.7724C20.9778 5.65563 18.9948 3.67153 15.8773 3.60626C15.1287 3.53408 9.30282 3.53277 8.55368 3.60626C5.43691 3.67209 3.45282 5.65506 3.38755 8.77258C3.31537 9.52003 3.31388 15.3478 3.38755 16.0962C3.44571 19.2028 5.44664 21.2043 8.55368 21.2623C9.30226 21.3352 15.1281 21.3352 15.8773 21.2623C16.8226 21.2191 17.4683 21.0689 18.0332 20.8494C20.013 20.0586 20.9804 18.2994 21.0436 16.096C21.1158 15.3474 21.1171 9.52153 21.0436 8.7724ZM15.8043 19.6636C15.0677 19.7339 9.36378 19.735 8.62662 19.6636C7.76079 19.6241 7.29048 19.4794 6.97744 19.3579C4.27544 18.1046 5.11321 15.5701 4.98586 12.0913C4.98867 11.2833 4.98418 9.65355 4.98605 8.84551C5.09395 6.43655 6.2285 5.32126 8.62662 5.20495C9.36415 5.13464 15.0666 5.13351 15.8043 5.20495C18.214 5.31285 19.3282 6.44739 19.4449 8.84533C19.4926 9.42111 19.5272 12.5642 19.4449 14.1549C19.5337 17.1424 19.3976 19.4884 15.8043 19.6636Z" fill="black"/>
</g>
<defs>
<clipPath id="clip0_1649_55">
<rect width="18.7002" height="18.7002" fill="white" transform="translate(2.86545 3.08411)"/>
</clipPath>
</defs>
</svg>
