<svg width="25" height="25" viewBox="0 0 25 25" fill="none" xmlns="http://www.w3.org/2000/svg">
<rect x="0.313282" y="0.512806" width="23.8428" height="23.8428" rx="4.44131" stroke="black" stroke-width="0.467506"/>
<path d="M17.8448 11.5303V9.31748C16.8085 9.31748 16.0176 9.04087 15.5073 8.50324C14.9834 7.88965 14.69 7.11262 14.6774 6.30596V6.14623L12.5853 6.09558V15.0834C12.5136 15.4755 12.3232 15.8362 12.04 16.1167C11.7567 16.3973 11.3942 16.5842 11.0014 16.6521C10.6086 16.7201 10.2044 16.6659 9.84332 16.4969C9.48227 16.3279 9.18177 16.0522 8.98239 15.7069C8.78301 15.3617 8.69436 14.9636 8.72839 14.5664C8.76242 14.1692 8.9175 13.792 9.1727 13.4858C9.4279 13.1795 9.77092 12.9589 10.1555 12.8538C10.54 12.7486 10.9475 12.764 11.3231 12.8978V10.7551C11.1041 10.7192 10.8826 10.7009 10.6608 10.7005C9.8625 10.7005 9.08215 10.9372 8.41841 11.3807C7.75468 11.8242 7.23735 12.4546 6.93187 13.1921C6.62638 13.9296 6.54645 14.7411 6.70219 15.5241C6.85792 16.307 7.24233 17.0262 7.80679 17.5906C8.37126 18.1551 9.09043 18.5395 9.87336 18.6952C10.6563 18.851 11.4678 18.771 12.2053 18.4656C12.9428 18.1601 13.5732 17.6428 14.0167 16.979C14.4602 16.3153 14.6969 15.5349 14.6969 14.7367C14.6965 14.5713 14.6861 14.406 14.6657 14.2419V10.6771C15.617 11.2712 16.7239 11.5683 17.8448 11.5303Z" fill="black"/>
</svg>
