<svg width="26" height="25" viewBox="0 0 26 25" fill="none" xmlns="http://www.w3.org/2000/svg">
<rect x="0.986317" y="0.512806" width="23.8428" height="23.8428" rx="4.44131" stroke="black" stroke-width="0.467506"/>
<path d="M21.5886 7.03401C20.9496 7.31788 20.2631 7.50881 19.5426 7.59502C20.2784 7.15425 20.8426 6.45655 21.1084 5.62457C20.4206 6.03261 19.6582 6.32901 18.846 6.48927C18.1964 5.7968 17.2709 5.36408 16.2465 5.36408C13.9823 5.33378 12.2414 7.54584 12.7772 9.73713C9.81715 9.58884 7.19294 8.17061 5.43549 6.01503C4.47636 7.57912 5.02091 9.81586 6.53806 10.7707C5.95442 10.752 5.40482 10.5917 4.92479 10.3253C4.90253 12.0653 6.13694 13.5344 7.782 13.8622C7.27653 14.0032 6.69421 14.0253 6.1734 13.9236C6.62688 15.3384 7.94226 16.3688 9.50074 16.3974C8.09167 17.5234 6.11899 18.1104 4.22708 17.8725C11.8347 22.5545 20.2448 16.4204 19.8106 8.87748C20.5068 8.37482 21.1112 7.7478 21.5886 7.03401Z" fill="black"/>
</svg>
