<svg width="25" height="25" viewBox="0 0 25 25" fill="none" xmlns="http://www.w3.org/2000/svg">
<rect x="0.640247" y="0.512806" width="23.8428" height="23.8428" rx="4.44131" stroke="black" stroke-width="0.467506"/>
<g clip-path="url(#clip0_1649_63)">
<path d="M21.1326 10.6499C21.1711 9.53465 20.9272 8.42773 20.4236 7.43192C20.0818 7.02332 19.6075 6.74758 19.0834 6.65275C16.9153 6.45603 14.7383 6.3754 12.5617 6.4112C10.3929 6.37377 8.22375 6.4518 6.06332 6.64496C5.63619 6.72265 5.24091 6.923 4.92572 7.22155C4.22446 7.86826 4.14655 8.9747 4.06863 9.90971C3.95558 11.5908 3.95558 13.2777 4.06863 14.9588C4.09117 15.485 4.16953 16.0074 4.30238 16.5171C4.39633 16.9107 4.58641 17.2748 4.8556 17.5768C5.17293 17.8912 5.57741 18.1029 6.01657 18.1846C7.69641 18.3919 9.38902 18.4779 11.0812 18.4417C13.8083 18.4807 16.2004 18.4417 19.0288 18.2235C19.4788 18.1469 19.8946 17.9349 20.221 17.6158C20.4391 17.3975 20.602 17.1304 20.6963 16.8366C20.9749 15.9815 21.1118 15.0866 21.1014 14.1874C21.1326 13.7511 21.1326 11.1174 21.1326 10.6499ZM10.8007 14.6549V9.83179L15.4134 12.255C14.12 12.9719 12.4136 13.7822 10.8007 14.6549Z" fill="black"/>
</g>
<defs>
<clipPath id="clip0_1649_63">
<rect width="18.7002" height="18.7002" fill="white" transform="translate(3.21153 3.08411)"/>
</clipPath>
</defs>
</svg>
